<svg width="141" height="44" viewBox="0 0 141 44" fill="none" xmlns="http://www.w3.org/2000/svg">
<path d="M72.1553 9.35078C98.371 7.6784 128.736 22.0679 140.642 29.4717C141.682 30.3775 140.209 31.8815 139.342 32.5203C139.758 32.9384 139.515 33.5655 139.342 33.8268C131.019 43.1643 101.486 42.1888 87.7599 40.5338C85.7486 41.4397 78.7728 42.5953 75.5362 43.0598C58.6833 45.0806 55.2791 43.3792 55.6837 42.2759C64.2142 42.0668 70.9705 38.1239 73.2822 36.1786L70.7682 34.785C64.0929 34.3785 51.4011 33.3913 54.0366 32.6945C56.672 31.9977 57.851 31.2428 58.1111 30.9524C57.5909 29.5588 42.4198 27.2941 40.1658 28.1651C37.9118 29.0362 32.2768 32.9558 32.8836 31.3879C33.4905 29.8201 32.2768 27.7296 30.803 26.5102C29.3292 25.2907 14.0714 23.81 12.771 25.552C11.7307 26.9457 8.2341 30.0233 6.61584 31.3879C-3.50981 35.6386 0.200607 30.1975 3.32153 26.9457C9.21661 21.8937 5.22878 15.5351 4.18846 12.7478C3.14815 9.96051 0.89415 1.59858 1.58769 1.42437C2.28123 1.25017 13.2912 8.91527 14.0714 12.7478C14.6956 15.8139 17.2212 17.8579 18.406 18.4966C21.8737 19.1064 29.5026 19.8903 32.2768 18.1482C35.0509 16.4062 36.5536 13.0091 36.9582 11.5284C37.8598 13.8976 40.3392 15.5932 41.4662 16.1448C53.9499 14.6815 57.3598 11.0057 57.5042 9.35078C55.7704 -3.71473 62.359 -0.230594 64.8731 2.90513C66.8844 5.41371 70.5659 8.24747 72.1553 9.35078Z" fill="#2C6086" fill-opacity="0.4"/>
</svg>
