<svg width="164" height="68" viewBox="0 0 164 68" fill="none" xmlns="http://www.w3.org/2000/svg">
<path d="M89.781 5.27163C40.4613 -7.15456 9.37713 5.27163 0 13.038C2.87299 25.9421 23.1436 35.1423 32.9197 38.1293C35.3139 48.6438 52.6715 62.4241 61.0511 68L56.8613 45.8957H70.0292C86.3095 52.1088 109.134 53.6621 118.511 53.6621C118.511 45.2983 119.588 30.4825 123.898 38.1293C128.207 45.7762 144.847 58.4414 152.628 63.8181C136.347 42.3112 153.426 31.3587 164 28.5707C162.404 26.5794 154.902 23.0745 137.664 24.9863C120.426 26.898 114.521 20.6052 113.723 17.2199L128.686 8.85611C114.321 0.253361 96.764 2.88198 89.781 5.27163Z" fill="#589A7A" fill-opacity="0.49"/>
</svg>
