<svg width="78" height="53" viewBox="0 0 78 53" fill="none" xmlns="http://www.w3.org/2000/svg">
<path d="M75.721 14.0294L66.8126 25.5647C63.2069 20.8882 52.5593 11.0365 38.815 9.04118C38.4076 6.64595 38.3132 1.66293 41.0115 0.167021C41.1332 0.107919 41.2496 0.0522061 41.3602 0C41.2391 0.0494447 41.1229 0.105261 41.0115 0.167021C37.9847 1.63734 31.668 5.2048 27.9977 9.04118C24.1798 13.0318 25.5585 11.5353 26.7251 10.2882C21.3164 12.0549 8.59019 17.1471 0.954468 23.3824L4.45418 27.4353L0 28.6824C5.19654 36.2686 19.7256 51.7529 36.2697 53V48.0118C44.3297 46.2006 61.3404 40.5472 64.9037 32.4235C66.9187 33.6706 71.0759 37.2247 71.585 41.4647C75.2968 37.4118 81.3205 26.2506 75.721 14.0294Z" fill="#2A6D69" fill-opacity="0.55"/>
</svg>
