<svg width="102" height="100" viewBox="0 0 102 100" fill="none" xmlns="http://www.w3.org/2000/svg">
<path d="M65.1465 26.5032C40.7465 13.7032 20.3131 21.1698 13.1465 26.5032C5.6465 18.5032 -2.35355 25.0032 0.646447 25.5032C3.04645 25.9032 5.31312 30.3365 6.14646 32.5032C-0.653544 38.1203 0.313128 43.177 1.64646 45.0032C-0.753544 49.0032 6.64646 55.6698 10.6465 58.5032V62.0032C6.24646 60.0032 4.81314 63.8365 4.64648 66.0032C1.04648 73.2032 6.14647 74.3365 9.14647 74.0032C9.14647 70.8032 14.8131 68.3365 17.6465 67.5032C37.6465 81.9032 53.3131 76.8365 58.6465 72.5032C58.4798 71.5032 58.9465 69.1032 62.1465 67.5032C65.3465 65.9032 67.4798 68.1698 68.1465 69.5032C66.6465 70.0032 63.3465 72.1032 62.1465 76.5032C60.9465 80.9032 52.6465 93.6698 48.6465 99.5032C72.6465 95.0032 78.1465 68.5032 74.6465 66.0032C71.1465 63.5032 65.1465 53.5032 82.1465 53.0032C95.7465 52.6032 100.48 47.5032 101.146 45.0032C87.6465 28.0032 74.6465 41.0032 74.6465 38.5032C74.6465 36.5032 71.9798 33.6698 70.6465 32.5032L74.6465 29.5032C75.4798 27.5032 75.3465 21.0032 68.1465 11.0032C59.1465 -1.49681 41.1465 -1.49681 50.6465 2.00319C58.2465 4.80319 63.4798 19.5032 65.1465 26.5032Z" fill="#3C89AA" fill-opacity="0.8"/>
</svg>
