<svg width="1440" height="989" viewBox="0 0 1440 989" fill="none" xmlns="http://www.w3.org/2000/svg">
<g clip-path="url(#clip0_52_2)">
<path d="M0 29.1177L26.7 50.5042C53.3 72.2924 107 114.463 160 109.443C213.3 104.422 267 50.203 320 66.5692C373.3 82.333 427 168.682 480 184.446C533.3 200.812 587 146.593 640 104.121C693.3 61.2477 747 29.1177 800 45.1827C853.3 61.2477 907 125.508 960 120.186C1013.3 114.463 1067 40.1624 1120 13.0528C1173.3 -14.0569 1227 8.03247 1280 34.4393C1333.3 61.2477 1387 93.3776 1413 109.443L1440 125.508V988.498H1413.3C1386.7 988.498 1333 988.498 1280 988.498C1226.7 988.498 1173 988.498 1120 988.498C1066.7 988.498 1013 988.498 960 988.498C906.7 988.498 853 988.498 800 988.498C746.7 988.498 693 988.498 640 988.498C586.7 988.498 533 988.498 480 988.498C426.7 988.498 373 988.498 320 988.498C266.7 988.498 213 988.498 160 988.498C106.7 988.498 53 988.498 27 988.498H0V29.1177Z" fill="#6AC6FB" fill-opacity="0.4"/>
</g>
<defs>
<clipPath id="clip0_52_2">
<rect width="1440" height="989" fill="white"/>
</clipPath>
</defs>
</svg>
