<svg width="1440" height="993" viewBox="0 0 1440 993" fill="none" xmlns="http://www.w3.org/2000/svg">
<g clip-path="url(#clip0_52_4)">
<path d="M0 141.145L26.7 146.451C53.3 152.156 107 162.167 160 146.451C213.3 130.134 267 88.0906 320 98.4012C373.3 109.112 427 173.178 480 162.467C533.3 152.156 587 66.0679 640 55.7573C693.3 45.0463 747 109.112 800 151.856C853.3 194.2 907 216.222 960 199.905C1013.3 184.189 1067 130.134 1120 82.3847C1173.3 34.035 1227 -8.00821 1280 2.30239C1333.3 13.0134 1387 77.0792 1413 109.112L1440 141.145V993H1413.3C1386.7 993 1333 993 1280 993C1226.7 993 1173 993 1120 993C1066.7 993 1013 993 960 993C906.7 993 853 993 800 993C746.7 993 693 993 640 993C586.7 993 533 993 480 993C426.7 993 373 993 320 993C266.7 993 213 993 160 993C106.7 993 53 993 27 993H0V141.145Z" fill="#8AFFE3" fill-opacity="0.4"/>
</g>
<defs>
<clipPath id="clip0_52_4">
<rect width="1440" height="993" fill="white"/>
</clipPath>
</defs>
</svg>
